<svg width="1038" height="371" viewBox="0 0 1038 371" fill="none" xmlns="http://www.w3.org/2000/svg">
<mask id="mask0_5609_392" style="mask-type:luminance" maskUnits="userSpaceOnUse" x="348" y="109" width="668" height="153">
<path d="M1015.77 109H348.538V261.406H1015.77V109Z" fill="white"/>
</mask>
<g mask="url(#mask0_5609_392)">
<path d="M794.376 208.775C794.376 203.797 797.324 200.85 803.521 199.936L817.847 197.903V201.764C817.847 210.401 811.65 216.497 803.114 216.497C797.324 216.497 794.376 213.754 794.376 208.775ZM656.195 173.519V154.722H683.019C690.031 154.722 692.875 157.465 692.875 164.069C692.875 170.572 689.927 173.62 683.019 173.62L656.195 173.519ZM656.195 210.909V190.182H682.511C691.148 190.182 695.414 193.433 695.414 200.037C695.414 207.048 690.944 210.807 682.511 210.807L656.195 210.909ZM574.202 188.556L585.886 156.246H586.697L598.28 188.556H574.202ZM931.543 227.572H946.478V212.738H937.538C933.879 212.738 932.559 211.417 932.559 207.759V180.326H954.506L973.809 228.893C975.639 233.465 973.505 236.412 968.425 236.412H955.826V251.246H968.83C980.921 251.246 986.509 247.486 990.269 236.92L1015.77 165.593V165.289H997.28L983.768 208.775H982.954L968.018 165.289H932.458V145.679H914.981V165.289H904.718V180.224H915.082V210.909C915.082 223.101 919.553 227.572 931.543 227.572ZM797.832 230.214C806.467 230.214 813.579 226.657 817.847 220.358H818.659C820.49 225.438 826.179 228.994 833.392 228.994C839.489 228.994 844.06 226.353 846.907 221.171C853.307 226.251 862.351 229.096 872.917 229.096C891.815 229.096 903.906 219.952 903.906 205.829C903.906 195.059 896.794 189.47 879.724 187.438L871.699 186.524C865.603 185.914 863.772 184.797 863.772 182.257C863.772 178.7 867.125 176.567 872.612 176.567C878.505 176.567 883.787 179.31 886.531 183.882L902.179 177.075C897.201 168.438 885.921 162.85 872.51 162.85C856.457 162.85 846.194 170.775 846.194 183.171C846.194 193.839 853.916 200.139 869.259 202.171L877.691 203.39C883.686 204.203 886.328 205.727 886.328 208.775C886.328 212.534 882.162 215.379 874.44 215.379C865.805 215.379 859.504 211.823 856.965 205.524L849.142 210.502C846.194 212.433 843.757 213.246 841.114 213.347C836.846 213.042 835.221 211.519 835.221 207.759V185.406C835.221 169.962 826.788 163.053 807.89 163.053C790.719 163.053 781.372 169.048 778.729 181.545L796.51 184.695C797.526 179.919 801.488 177.278 807.688 177.278C814.495 177.278 817.746 180.123 817.746 186.219V186.829L797.832 189.775C784.724 191.706 776.901 199.428 776.901 210.909C776.901 222.492 785.132 230.214 797.832 230.214ZM743.068 227.572H762.373V154.722H792.446V138.059H715.634V154.722H743.068V227.572ZM636.991 227.572H687.389C704.966 227.572 715.227 218.428 715.227 202.984C715.227 191.299 709.232 183.984 697.955 181.545V180.732C707.811 177.379 712.688 170.674 712.688 160.31C712.688 145.781 703.442 138.059 685.965 138.059H636.991V227.572ZM540.672 227.572H560.179L568.207 205.219H604.275L612.303 227.572H632.726V227.267L598.28 137.957H575.013L540.672 227.267V227.572ZM539.453 109L512.019 227.572H400.865L427.282 238.85L425.25 247.69H365.406L380.238 254.497L378.716 261.406H348.538L359.613 213.347H377.191L389.181 162.24H422.506L434.698 109H539.453Z" fill="#3100BE"/>
</g>
<path d="M277.183 137.584C275.313 137.584 273.071 137.584 271.201 137.954L260.355 156.84C265.217 153.878 271.201 152.396 277.183 152.396C296.631 152.396 312.712 168.32 312.712 187.576C312.712 206.832 296.631 222.756 277.183 222.756C257.738 222.756 242.031 207.203 241.657 187.946L230.438 206.832C237.917 224.977 256.242 237.568 276.811 237.568C304.484 237.568 327.297 214.979 327.297 187.576C327.67 160.173 304.859 137.584 277.183 137.584Z" fill="#BF3078"/>
<path d="M124.605 189.798L133.206 174.985L152.652 207.943L175.09 169.801L197.529 207.943L236.048 143.139C237.917 139.806 241.657 137.584 245.771 137.584H256.616L197.529 237.568L175.09 199.426L152.652 237.568L124.605 189.798Z" fill="#802050"/>
<path d="M140.685 137.584L81.5977 237.568L22.8845 137.584H33.7296C37.8433 137.584 41.583 139.806 43.4528 143.139L81.5977 208.314L120.117 143.139C121.986 139.806 125.726 137.584 129.84 137.584H140.685Z" fill="#26134D"/>
</svg>
